<?xml version="1.0" encoding="utf-8"?>
<!-- Generator: Adobe Illustrator 18.1.1, SVG Export Plug-In . SVG Version: 6.00 Build 0)  -->
<svg version="1.1" id="Layer_1" xmlns="http://www.w3.org/2000/svg" xmlns:xlink="http://www.w3.org/1999/xlink" x="0px" y="0px"
	 width="201px" height="201px" viewBox="0 0 201 201" enable-background="new 0 0 201 201" xml:space="preserve">
<path fill-rule="evenodd" clip-rule="evenodd" fill="#FDB73E" d="M100.5,201C45,201,0,156,0,100.5C0,45,45,0,100.5,0
	C156,0,201,45,201,100.5C201,156,156,201,100.5,201z M100.5,18.8c-45,0-81.7,36.6-81.7,81.7c0,45,36.6,81.7,81.7,81.7
	s81.7-36.6,81.7-81.7C182.2,55.5,145.5,18.8,100.5,18.8z M130.6,109.6c-3,10-10.9,17.9-20.9,20.9l-45,13.6c-0.6,0.2-1.2,0.3-1.8,0.3
	c-3.5,0-6.3-2.8-6.3-6.3c0-0.6,0.1-1.3,0.3-1.8l13.6-45c3-10,10.9-17.9,20.9-20.9l45-13.6c0.6-0.2,1.2-0.3,1.8-0.3
	c3.5,0,6.3,2.8,6.3,6.3c0,0.6-0.1,1.3-0.3,1.8L130.6,109.6z M100.5,87.9c-6.9,0-12.6,5.6-12.6,12.6c0,6.9,5.6,12.6,12.6,12.6
	c6.9,0,12.6-5.6,12.6-12.6C113.1,93.6,107.4,87.9,100.5,87.9z"/>
</svg>
